<svg id="estrelas" xmlns="http://www.w3.org/2000/svg" viewBox="0 0 194.63 174.63"><defs><style>.cls-1{fill:#c92727;}.cls-2{fill:#263572;}</style></defs><title>logo evento fiap</title><path class="cls-1" d="M21.75,105.54c1.92-.33,3.27-0.43,4.92-0.58a41.79,41.79,0,0,1,2.08-4c0.73,1.32,1.46,3.69,1.75,4,2.29,0.18,3.41.25,4.33,0.42-0.73.62-1.41,1.49-3.38,3a26.79,26.79,0,0,1,.71,4.25,32.76,32.76,0,0,1-3.75-2.09,16.41,16.41,0,0,1-3.87,3,40.57,40.57,0,0,1,.79-4.92A8.9,8.9,0,0,1,21.75,105.54Z" transform="translate(-19 -34)"/><path class="cls-1" d="M20.92,131.17c1.92-.33,3.27-0.43,4.92-0.58a41.79,41.79,0,0,1,2.08-4c0.73,1.32,1.46,3.69,1.75,4,2.29,0.18,3.41.25,4.33,0.42-0.73.62-1.41,1.49-3.37,3a26.79,26.79,0,0,1,.71,4.25,32.76,32.76,0,0,1-3.75-2.09,16.41,16.41,0,0,1-3.87,3,40.57,40.57,0,0,1,.79-4.92A8.9,8.9,0,0,1,20.92,131.17Z" transform="translate(-19 -34)"/><path class="cls-1" d="M41.88,132.18c1.59-.28,2.7-0.35,4.07-0.48a34.6,34.6,0,0,1,1.73-3.28c0.6,1.09,1.21,3.06,1.45,3.35,1.9,0.15,2.82.21,3.59,0.35-0.61.52-1.17,1.24-2.79,2.52a22.19,22.19,0,0,1,.59,3.52,27.13,27.13,0,0,1-3.11-1.73,13.59,13.59,0,0,1-3.21,2.49,33.6,33.6,0,0,1,.66-4.07A7.37,7.37,0,0,1,41.88,132.18Z" transform="translate(-19 -34)"/><path class="cls-1" d="M94.88,112.16c1.33-.23,2.27-0.3,3.42-0.41A29.09,29.09,0,0,1,99.75,109c0.51,0.92,1,2.57,1.22,2.81,1.59,0.12,2.37.18,3,.29-0.51.43-1,1-2.35,2.12a18.65,18.65,0,0,1,.49,3,22.8,22.8,0,0,1-2.61-1.46,11.42,11.42,0,0,1-2.7,2.1,28.24,28.24,0,0,1,.55-3.42A6.19,6.19,0,0,1,94.88,112.16Z" transform="translate(-19 -34)"/><path class="cls-1" d="M93,99c1.61-.28,2.75-0.36,4.13-0.49a35.14,35.14,0,0,1,1.75-3.33c0.61,1.11,1.23,3.11,1.47,3.4,1.93,0.15,2.86.21,3.64,0.35-0.61.53-1.19,1.26-2.84,2.56a22.53,22.53,0,0,1,.6,3.57,27.55,27.55,0,0,1-3.15-1.76,13.8,13.8,0,0,1-3.26,2.53A34.12,34.12,0,0,1,96,101.7,7.48,7.48,0,0,1,93,99Z" transform="translate(-19 -34)"/><path class="cls-1" d="M140.6,122.44c2.65-.46,4.51-0.59,6.79-0.81a57.73,57.73,0,0,1,2.88-5.47c1,1.82,2,5.1,2.42,5.58,3.17,0.24,4.7.35,6,.58-1,.86-2,2.06-4.66,4.2a37,37,0,0,1,1,5.87,45.25,45.25,0,0,1-5.18-2.89c-2.16,1.92-2.94,2.9-5.35,4.16a56,56,0,0,1,1.09-6.79C143.26,126,141.38,123.54,140.6,122.44Z" transform="translate(-19 -34)"/><path class="cls-1" d="M166.83,107c1.28-.22,2.18-0.29,3.28-0.39a27.92,27.92,0,0,1,1.39-2.64c0.49,0.88,1,2.47,1.17,2.7,1.53,0.12,2.27.17,2.89,0.28-0.49.42-.94,1-2.25,2a17.9,17.9,0,0,1,.47,2.84,21.88,21.88,0,0,1-2.51-1.4,11,11,0,0,1-2.59,2,27.1,27.1,0,0,1,.53-3.28A5.94,5.94,0,0,1,166.83,107Z" transform="translate(-19 -34)"/><path class="cls-1" d="M187.92,109.25c1.91-.33,3.25-0.43,4.9-0.58a41.62,41.62,0,0,1,2.07-3.94c0.73,1.32,1.46,3.68,1.74,4,2.28,0.18,3.39.25,4.32,0.41-0.73.62-1.41,1.49-3.36,3a26.69,26.69,0,0,1,.71,4.23,32.63,32.63,0,0,1-3.74-2.09,16.34,16.34,0,0,1-3.86,3,40.41,40.41,0,0,1,.79-4.9A8.86,8.86,0,0,1,187.92,109.25Z" transform="translate(-19 -34)"/><path class="cls-1" d="M198.17,129.19c1.91-.33,3.25-0.43,4.9-0.58a41.62,41.62,0,0,1,2.07-3.94c0.73,1.32,1.46,3.68,1.74,4,2.28,0.18,3.39.25,4.32,0.41-0.73.62-1.41,1.49-3.36,3a26.69,26.69,0,0,1,.71,4.23,32.63,32.63,0,0,1-3.74-2.09,16.34,16.34,0,0,1-3.86,3,40.41,40.41,0,0,1,.79-4.9A8.86,8.86,0,0,1,198.17,129.19Z" transform="translate(-19 -34)"/><path class="cls-1" d="M187.92,147.21c1.91-.33,3.25-0.43,4.9-0.58a41.62,41.62,0,0,1,2.07-3.94c0.73,1.32,1.46,3.68,1.74,4,2.28,0.18,3.39.25,4.32,0.41-0.73.62-1.41,1.49-3.36,3a26.69,26.69,0,0,1,.71,4.23,32.63,32.63,0,0,1-3.74-2.09,16.34,16.34,0,0,1-3.86,3,40.41,40.41,0,0,1,.79-4.9A8.86,8.86,0,0,1,187.92,147.21Z" transform="translate(-19 -34)"/><path class="cls-1" d="M38.5,90.49c2.9-.5,4.93-0.65,7.43-0.88a63.13,63.13,0,0,1,3.15-6c1.1,2,2.21,5.58,2.64,6.11,3.46,0.27,5.14.38,6.55,0.63-1.1.94-2.14,2.26-5.1,4.59a40.47,40.47,0,0,1,1.07,6.42,49.49,49.49,0,0,1-5.67-3.16c-2.36,2.1-3.22,3.18-5.85,4.55a61.29,61.29,0,0,1,1.2-7.43C41.4,94.42,39.35,91.68,38.5,90.49Z" transform="translate(-19 -34)"/><path class="cls-1" d="M127.5,74.88c2.06-.36,3.52-0.46,5.29-0.63A45,45,0,0,1,135,70c0.79,1.42,1.58,4,1.88,4.35,2.47,0.19,3.67.27,4.66,0.45-0.79.67-1.52,1.61-3.63,3.27a28.84,28.84,0,0,1,.76,4.57,35.27,35.27,0,0,1-4-2.25,17.66,17.66,0,0,1-4.17,3.24,43.68,43.68,0,0,1,.85-5.29C129.57,77.68,128.11,75.73,127.5,74.88Z" transform="translate(-19 -34)"/><path class="cls-1" d="M129.06,92.56c1.26-.22,2.14-0.28,3.22-0.38a27.36,27.36,0,0,1,1.36-2.59c0.48,0.86,1,2.42,1.15,2.65,1.5,0.12,2.23.17,2.84,0.27-0.48.41-.93,1-2.21,2a17.54,17.54,0,0,1,.46,2.78,21.45,21.45,0,0,1-2.46-1.37,10.74,10.74,0,0,1-2.54,2,26.57,26.57,0,0,1,.52-3.22A5.83,5.83,0,0,1,129.06,92.56Z" transform="translate(-19 -34)"/><path class="cls-1" d="M152,80.08c1.38-.24,2.35-0.31,3.54-0.42a30.09,30.09,0,0,1,1.5-2.85c0.53,1,1.05,2.66,1.26,2.91,1.65,0.13,2.45.18,3.12,0.3-0.53.45-1,1.08-2.43,2.19a19.29,19.29,0,0,1,.51,3.06,23.58,23.58,0,0,1-2.7-1.51A11.81,11.81,0,0,1,154,85.93a29.21,29.21,0,0,1,.57-3.54A6.41,6.41,0,0,1,152,80.08Z" transform="translate(-19 -34)"/><path class="cls-1" d="M170.63,73.07c1.6-.28,2.73-0.36,4.11-0.49a35,35,0,0,1,1.74-3.31c0.61,1.1,1.22,3.09,1.46,3.38,1.92,0.15,2.85.21,3.62,0.35-0.61.52-1.18,1.25-2.82,2.54a22.41,22.41,0,0,1,.59,3.55,27.4,27.4,0,0,1-3.14-1.75A13.72,13.72,0,0,1,173,79.87a33.93,33.93,0,0,1,.66-4.11A7.44,7.44,0,0,1,170.63,73.07Z" transform="translate(-19 -34)"/><path class="cls-1" d="M157.15,64.67c1.25-.22,2.14-0.28,3.22-0.38a27.34,27.34,0,0,1,1.36-2.59c0.48,0.86,1,2.42,1.14,2.64,1.5,0.12,2.23.17,2.83,0.27-0.48.41-.93,1-2.21,2a17.53,17.53,0,0,1,.46,2.78A21.43,21.43,0,0,1,161.51,68,10.73,10.73,0,0,1,159,70a26.54,26.54,0,0,1,.52-3.22A5.82,5.82,0,0,1,157.15,64.67Z" transform="translate(-19 -34)"/><path class="cls-1" d="M140.53,50.09c1.34-.23,2.27-0.3,3.42-0.41a29.1,29.1,0,0,1,1.45-2.76c0.51,0.92,1,2.57,1.22,2.81,1.6,0.12,2.37.18,3,.29-0.51.44-1,1-2.35,2.12a18.66,18.66,0,0,1,.49,3,22.81,22.81,0,0,1-2.61-1.46,11.43,11.43,0,0,1-2.7,2.1,28.25,28.25,0,0,1,.55-3.42A6.2,6.2,0,0,1,140.53,50.09Z" transform="translate(-19 -34)"/><path class="cls-1" d="M184.5,54.24c1.62-.28,2.76-0.36,4.15-0.49a35.3,35.3,0,0,1,1.76-3.34c0.62,1.12,1.24,3.12,1.48,3.41,1.94,0.15,2.88.21,3.66,0.35-0.62.53-1.19,1.26-2.85,2.57a22.63,22.63,0,0,1,.6,3.59,27.67,27.67,0,0,1-3.17-1.77,13.86,13.86,0,0,1-3.27,2.54,34.27,34.27,0,0,1,.67-4.15A7.52,7.52,0,0,1,184.5,54.24Z" transform="translate(-19 -34)"/><path class="cls-1" d="M201.92,76.35c1.72-.3,2.92-0.38,4.4-0.52a37.4,37.4,0,0,1,1.86-3.54c0.65,1.18,1.31,3.3,1.57,3.62,2.05,0.16,3,.23,3.88.37-0.65.56-1.27,1.34-3,2.72a24,24,0,0,1,.63,3.8,29.32,29.32,0,0,1-3.36-1.87,14.69,14.69,0,0,1-3.47,2.69,36.31,36.31,0,0,1,.71-4.4A8,8,0,0,1,201.92,76.35Z" transform="translate(-19 -34)"/><path class="cls-1" d="M109.74,55.37c1.7-.29,2.89-0.38,4.36-0.52a37,37,0,0,1,1.85-3.51c0.65,1.17,1.3,3.27,1.55,3.58,2,0.16,3,.22,3.84.37-0.65.55-1.25,1.32-3,2.7a23.75,23.75,0,0,1,.63,3.77,29,29,0,0,1-3.32-1.86,14.55,14.55,0,0,1-3.43,2.67,36,36,0,0,1,.7-4.36A7.89,7.89,0,0,1,109.74,55.37Z" transform="translate(-19 -34)"/><path class="cls-1" d="M79,61.93c1.55-.27,2.65-0.35,4-0.47a33.89,33.89,0,0,1,1.69-3.21c0.59,1.07,1.19,3,1.42,3.28,1.86,0.14,2.76.21,3.51,0.34-0.59.51-1.15,1.21-2.74,2.47a21.73,21.73,0,0,1,.57,3.45,26.57,26.57,0,0,1-3-1.7,13.31,13.31,0,0,1-3.14,2.44,32.9,32.9,0,0,1,.64-4A7.22,7.22,0,0,1,79,61.93Z" transform="translate(-19 -34)"/><path class="cls-1" d="M80,46.59c1.25-.22,2.13-0.28,3.2-0.38a27.22,27.22,0,0,1,1.36-2.58c0.48,0.86,1,2.41,1.14,2.63,1.49,0.12,2.22.16,2.82,0.27-0.48.41-.92,1-2.2,2a17.45,17.45,0,0,1,.46,2.77,21.34,21.34,0,0,1-2.44-1.36,10.69,10.69,0,0,1-2.52,2,26.43,26.43,0,0,1,.52-3.2A5.8,5.8,0,0,1,80,46.59Z" transform="translate(-19 -34)"/><path class="cls-1" d="M51.22,40.41c2.71-.47,4.61-0.6,6.94-0.82A59,59,0,0,1,61.1,34c1,1.86,2.07,5.21,2.47,5.71,3.24,0.25,4.81.36,6.12,0.59-1,.88-2,2.11-4.76,4.29a37.83,37.83,0,0,1,1,6,46.25,46.25,0,0,1-5.29-3c-2.21,2-3,3-5.47,4.25a57.28,57.28,0,0,1,1.12-6.94C53.94,44.09,52,41.53,51.22,40.41Z" transform="translate(-19 -34)"/><path class="cls-2" d="M203.88,145.81c-10.12-4.31-20.06-10.69-40.19-11,5.69-8.35,16.63-9.06,28.13-7.37-8,.56-12.56-0.19-19.37,4.81C187.06,134.19,194.19,137,203.88,145.81Z" transform="translate(-19 -34)"/><path class="cls-2" d="M121,144.08c-2.33-34.67,18.08-33.05,25.25-63.25-0.17,9.5-1.08,16.92-3.75,24.67,23.25-19.25,35.17-6.25,58.42-37.92-4,12.08-9.08,19.67-27.58,27.5C147.5,106.33,127.08,111,121,144.08Z" transform="translate(-19 -34)"/><path class="cls-2" d="M121.13,115.25c-1.79-8.25-12.75-29-39-32.25-23.79-1-33.75-.71-40.25-0.58C50.92,80.13,67,79.5,75.42,79,64.25,74.08,55.25,61.17,49.5,52c7.75,8,11.25,20.67,43.42,26.58,6,1.58,15.25,5.17,21.75,13.92,0.92-11.5.5-25.33,15.5-34.92C119,71.83,120,85.13,121.13,115.25Z" transform="translate(-19 -34)"/><path class="cls-2" d="M83.13,118.06c-8.5,1.65-33.19-9-64.12,8.56,1.63-2.44,5.81-11.5,30.19-14.19-10.25-5.62-12.75-10.25-13.75-14.25,4.81,5.25,14.63,16.69,39.44,16.38-2.07-7.25-2.37-13.12-.56-19.12C75.08,101.25,74.67,108.58,83.13,118.06Z" transform="translate(-19 -34)"/><path id="mao_dir_dedo" data-name="mao dir dedo" class="cls-2" d="M138.19,155.94c4.31,2.33,11.69,4.06,23.94,2.44,4.88-.58,8.44-6.88,15.19-12.56-4.56-3.12-9.25.88-20.69,10.38-2.89-1.25,3.91-8.93,7.75-15.44-3.51-4.06-10.37,6.63-15,13.5-2.62,1.44-.94-8.17.94-14.4,0.63-2-4.94-.93-6.31,6.8-0.29,2.35-1.4,4.35-1.69,6.79C139.79,153.42,136.23,154.48,138.19,155.94Z" transform="translate(-19 -34)"/><path id="mao_dir_base" data-name="mao dir base" class="cls-2" d="M120.5,208.63H135V181.17c1.58-2.33,31.42-18.92,52.92-20.33-0.58-6.08-6.92-5.75-20.58-2-8.25,1.92-24.08,5.5-34.5-4.67,0.42-6.25,1.17-19.67-5.75-20.5,0.83,4,1.46,4.63-.83,8.79-7.33,14.79-7.79,22.38-5.43,38.38C120.83,194.17,120.5,208.63,120.5,208.63Z" transform="translate(-19 -34)"/><path id="mao_esq_base" data-name="mao esq base" class="cls-2" d="M100.56,208.63s0.4-27.87,0-38.71c-16.48-9.17-39.31-21-57.65-21.67-1-1.06-.85-6,7.33-4.44,28.06,5.5,38.75,7.88,52.06-2.12a159.69,159.69,0,0,1,.38-16.62c0.5-4.25,6.25-7,6.25-7,0.09,1.31-2,4.76-1,6.31,6.06,9.45,11.53,27,8.28,43.79-0.42,8.42-.33,29.67,0,40.08C106.67,208.67,100.56,208.63,100.56,208.63Z" transform="translate(-19 -34)"/><path id="mao_esq_dedo" data-name="mao esq dedo" class="cls-2" d="M54.83,131.92C58.24,135,67.25,143.63,71,145.46c4.25,2,20.29,1.71,26.17-3-1.37-1.42-2.17-1.75-4.5-2.46-1.5-6.17-1.5-14.17-8.42-15.38A36.82,36.82,0,0,1,86,140.79c-0.46,2.38-5.71-7.71-10.83-13.58a6.57,6.57,0,0,0-6.71-1.54c3,4.58,7.13,9,9.79,17.29-3.17,0-8.46-7.21-15.62-11.17C59.21,129.46,52.9,130.18,54.83,131.92Z" transform="translate(-19 -34)"/></svg>